<svg width="78" height="38" viewBox="0 0 78 38" fill="none" xmlns="http://www.w3.org/2000/svg">
<path d="M44.833 10.2497L45.6663 8.99967C47.7652 6.20124 50.6913 4.13412 54.0302 3.09112C57.3691 2.04811 60.9516 2.08211 64.2701 3.18829C67.5887 4.29446 70.475 6.41674 72.5204 9.2545C74.5657 12.0923 75.6663 15.5016 75.6663 18.9997C75.6663 22.4977 74.5657 25.9071 72.5204 28.7448C70.475 31.5826 67.5887 33.7049 64.2701 34.8111C60.9516 35.9172 57.3691 35.9512 54.0302 34.9082C50.6913 33.8652 47.7652 31.7981 45.6663 28.9997L32.333 8.99967C30.2342 6.20124 27.3081 4.13412 23.9691 3.09112C20.6302 2.04811 17.0477 2.08211 13.7292 3.18829C10.4107 4.29446 7.52431 6.41674 5.47897 9.2545C3.43363 12.0923 2.33301 15.5016 2.33301 18.9997C2.33301 22.4977 3.43363 25.9071 5.47897 28.7448C7.52431 31.5826 10.4107 33.7049 13.7292 34.8111C17.0477 35.9172 20.6302 35.9512 23.9691 34.9082C27.3081 33.8652 30.2342 31.7981 32.333 28.9997L33.4463 27.333" stroke="white" stroke-width="2.875" stroke-linecap="round" stroke-linejoin="round"/>
</svg>
