<svg width="32" height="32" viewBox="0 0 32 32" fill="none" xmlns="http://www.w3.org/2000/svg">
<path d="M16.0352 32H15.9648C7.1619 32 0 24.8381 0 16.0352V15.9648C0 7.16192 7.1619 0 15.9648 0H16.0352C24.8381 0 32 7.16192 32 15.9648V16.0352C32 24.8381 24.8381 32 16.0352 32ZM15.9648 1.08317C7.75872 1.08317 1.08317 7.75874 1.08317 15.9648V16.0352C1.08317 24.2413 7.75872 30.9168 15.9648 30.9168H16.0352C24.2413 30.9168 30.9168 24.2413 30.9168 16.0352V15.9648C30.9168 7.75874 24.2413 1.08317 16.0352 1.08317H15.9648Z" fill="#F9F9F9"/>
<path d="M18.9294 7.42323C17.9226 7.42323 17.0927 8.18405 16.9836 9.16184L16.9704 9.17508V9.38225V12.7498V13.2498H17.4704H21.0583L20.544 16.7861H17.4704H16.9704V17.2861V27.2959C16.4279 27.3553 15.8763 27.386 15.3181 27.386C14.648 27.386 13.9881 27.3422 13.342 27.2569V17.2861V16.7861H12.842H9.5V13.2498H12.842H13.342V12.7498V8.62946C13.342 6.39444 15.1178 4.57348 17.3363 4.50217H17.4714C17.4902 4.50217 17.5067 4.50118 17.5199 4.5H21.1373V7.42323H18.9294ZM17.5584 4.49526C17.5597 4.49506 17.5581 4.49531 17.556 4.4956L17.5584 4.49526Z" stroke="#F9F9F9"/>
</svg>
