<svg width="34" height="34" viewBox="0 0 34 34" fill="none" xmlns="http://www.w3.org/2000/svg">
<path d="M20.5151 12.9521C19.8371 12.9521 19.3351 13.1231 18.9421 13.3391C18.8791 13.1151 18.6721 12.9511 18.4281 13.0001H15.4441C15.1491 12.9511 14.9101 13.1901 15.0011 13.5001V24.5001C14.9101 24.7801 15.1491 25.0201 15.4441 25.0001H18.4281C18.7231 25.0201 18.9621 24.7801 18.9621 24.4851L18.9611 17.8371C18.9601 17.8341 18.9491 17.5161 19.1501 17.2971C19.3111 17.1231 19.5881 17.0341 19.9711 17.0341C20.6091 17.0341 20.8931 17.2951 20.9991 17.8791V24.4851C20.8941 24.7801 21.1331 25.0201 21.4281 25.0001H24.5731C24.8681 25.0201 25.1071 24.7801 25.0011 24.4851V17.6571C25.1061 14.1851 22.6331 12.9521 20.5151 12.9521ZM24.0381 24.0001H21.9621V17.8791C21.9621 16.6981 21.1991 15.9661 19.9721 15.9661C19.2781 15.9661 18.7381 16.1701 18.3661 16.5721C17.8491 17.1321 17.8891 17.8421 18.0001 18.0001V24.0001H15.9781V14.0201H17.8941V14.3561C17.8933 14.4562 17.9208 14.5544 17.9733 14.6396C18.0259 14.7248 18.1014 14.7934 18.1912 14.8376C18.2811 14.8818 18.3815 14.8997 18.4811 14.8894C18.5806 14.879 18.6753 14.8408 18.7541 14.7791L18.8941 14.6711C19.2991 14.3521 19.7181 14.0211 20.5161 14.0211C21.3421 14.0211 24.0391 14.2841 24.0391 17.6581L24.0381 24.0001ZM12.0001 7.96606C10.8781 7.96606 9.96606 8.87806 9.96606 10.0001C9.96606 11.1221 10.8781 12.0341 12.0001 12.0341C13.1221 12.0341 14.0341 11.1221 14.0341 10.0001C14.0341 8.87806 13.1221 7.96606 12.0001 7.96606ZM12.0001 10.9661C11.4681 10.9661 11.0341 10.5321 11.0341 10.0001C11.0341 9.46806 11.4681 9.03406 12.0001 9.03406C12.5321 9.03406 12.9661 9.46806 12.9661 10.0001C12.9661 10.5321 12.5321 10.9661 12.0001 10.9661ZM13.4281 12.9511H10.4601C10.1651 12.9511 9.92606 13.1901 10.0001 13.5001V24.5001C9.92606 24.7801 10.1651 25.0201 10.4601 25.0001H13.4281C13.7231 25.0201 13.9621 24.7801 13.9621 24.4851V13.4851C13.9621 13.3434 13.9058 13.2076 13.8057 13.1075C13.7055 13.0073 13.5697 12.9511 13.4281 12.9511ZM13.0001 24.0001H10.9941V14.0201H13.0001V24.0001Z" fill="white"/>
<path d="M17.0001 0.966064C8.15807 0.966064 0.966064 8.15807 0.966064 17.0001C0.966064 25.8421 8.15807 33.0341 17.0001 33.0341C25.8421 33.0341 33.0341 25.8421 33.0341 17.0001C33.0341 8.15807 25.8421 0.966064 17.0001 0.966064ZM17.0001 31.9661C8.74807 31.9661 2.03406 25.2521 2.03406 17.0001C2.03406 8.74807 8.74807 2.03406 17.0001 2.03406C25.2521 2.03406 31.9661 8.74807 31.9661 17.0001C31.9661 25.2521 25.2521 31.9661 17.0001 31.9661Z" fill="white"/>
</svg>
